<svg xmlns="http://www.w3.org/2000/svg" viewBox="0 0 120 120">
  <!-- WoopKid mark: Woopy on a tilted sticker badge -->
  <g transform="rotate(-8 60 62)">
    <rect x="10" y="12" width="100" height="100" rx="30" fill="#FFFFFF"/>
    <rect x="16" y="18" width="88" height="88" rx="24" fill="#FFD23F" stroke="#2B2350" stroke-width="5"/>
  </g>
  <path d="M60 36 Q67 22 60 12" stroke="#2B2350" stroke-width="5" fill="none" stroke-linecap="round"/>
  <circle cx="60" cy="10" r="6.5" fill="#FF5FA2" stroke="#2B2350" stroke-width="4"/>
  <circle cx="60" cy="67" r="31" fill="#FF8A3D" stroke="#2B2350" stroke-width="5"/>
  <path d="M38 78 a31 31 0 0 0 44 0 a22 15 0 0 0 -44 0" fill="#FFD9B0" opacity=".9"/>
  <circle cx="49" cy="61" r="9.5" fill="#FFFFFF" stroke="#2B2350" stroke-width="3.5"/>
  <circle cx="71" cy="61" r="9.5" fill="#FFFFFF" stroke="#2B2350" stroke-width="3.5"/>
  <circle cx="51" cy="63" r="4" fill="#2B2350"/>
  <circle cx="73" cy="63" r="4" fill="#2B2350"/>
  <circle cx="41" cy="74" r="4.5" fill="#FF5C5C" opacity=".5"/>
  <circle cx="79" cy="74" r="4.5" fill="#FF5C5C" opacity=".5"/>
  <path d="M51 78 Q60 87 69 78" stroke="#2B2350" stroke-width="4.5" fill="none" stroke-linecap="round"/>
</svg>
